<svg xmlns="http://www.w3.org/2000/svg" width="1101.121" height="416.467" viewBox="0 0 1101.121 416.467">
  <g id="Group_20454" data-name="Group 20454" transform="translate(-145.696 -150.079)">
    <g id="Group_20447" data-name="Group 20447" transform="matrix(0.602, 0.799, -0.799, 0.602, 745.04, -982.941)" opacity="0.8">
      <path id="Path_23195" data-name="Path 23195" d="M38.531,45.495C37.061,58.009,43.083,69,51.982,70.05S69.29,61.8,70.76,49.284,66.207,25.773,57.308,24.729,40,32.981,38.531,45.495" transform="translate(1226.362 326.456)" fill="#642498" stroke="#707070" stroke-width="2"/>
      <path id="Path_23196" data-name="Path 23196" d="M38.531,45.495C37.061,58.009,43.083,69,51.982,70.05S69.29,61.8,70.76,49.284,66.207,25.773,57.308,24.729,40,32.981,38.531,45.495Z" transform="translate(1226.362 326.456)" fill="none" stroke="#030114" stroke-linecap="round" stroke-linejoin="round" stroke-width="2"/>
      <path id="Path_23197" data-name="Path 23197" d="M40.595,45.253c-1.47,12.514,4.552,23.507,13.451,24.555s17.308-8.252,18.778-20.766S68.271,25.531,59.372,24.487,42.065,32.739,40.595,45.253" transform="translate(1216.969 325.839)" fill="#7c2db7" stroke="#707070" stroke-width="2"/>
      <path id="Path_23198" data-name="Path 23198" d="M40.595,45.253c-1.47,12.514,4.552,23.507,13.451,24.555s17.308-8.252,18.778-20.766S68.271,25.531,59.372,24.487,42.065,32.739,40.595,45.253Z" transform="translate(1216.969 325.839)" fill="none" stroke="#030114" stroke-linecap="round" stroke-linejoin="round" stroke-width="2"/>
      <g id="Group_20450" data-name="Group 20450" transform="matrix(0.99, -0.139, 0.139, 0.99, 1265.587, 360.254)">
        <g id="Group_20444" data-name="Group 20444">
          <path id="Path_23192" data-name="Path 23192" d="M4.287,25.907V22.835A7.789,7.789,0,0,1,0,21.441l.715-2.977a7.361,7.361,0,0,0,4.128,1.394,2.517,2.517,0,0,0,2.805-2.5c0-1.425-.927-2.344-2.885-3.2C1.985,12.954.185,11.433.185,8.487A5.222,5.222,0,0,1,4.446,3.1V0h2.17V2.945A7.369,7.369,0,0,1,10.267,3.99L9.552,6.9a6.893,6.893,0,0,0-3.6-1.077A2.2,2.2,0,0,0,3.44,8.044c0,1.3.953,2.027,3.2,3.1,2.963,1.33,4.287,3.041,4.287,5.859a5.469,5.469,0,0,1-4.472,5.637v3.262Z" fill="#030115"/>
        </g>
      </g>
    </g>
    <g id="Group_20451" data-name="Group 20451" transform="translate(-784.911 1430.228) rotate(-60)" opacity="0.8">
      <path id="Path_23195-2" data-name="Path 23195" d="M38.531,45.495C37.061,58.009,43.083,69,51.982,70.05S69.29,61.8,70.76,49.284,66.207,25.773,57.308,24.729,40,32.981,38.531,45.495" transform="translate(1226.362 326.456)" fill="#642498" stroke="#707070" stroke-width="2"/>
      <path id="Path_23196-2" data-name="Path 23196" d="M38.531,45.495C37.061,58.009,43.083,69,51.982,70.05S69.29,61.8,70.76,49.284,66.207,25.773,57.308,24.729,40,32.981,38.531,45.495Z" transform="translate(1226.362 326.456)" fill="none" stroke="#030114" stroke-linecap="round" stroke-linejoin="round" stroke-width="2"/>
      <path id="Path_23197-2" data-name="Path 23197" d="M40.595,45.253c-1.47,12.514,4.552,23.507,13.451,24.555s17.308-8.252,18.778-20.766S68.271,25.531,59.372,24.487,42.065,32.739,40.595,45.253" transform="translate(1216.969 325.839)" fill="#7c2db7" stroke="#707070" stroke-width="2"/>
      <path id="Path_23198-2" data-name="Path 23198" d="M40.595,45.253c-1.47,12.514,4.552,23.507,13.451,24.555s17.308-8.252,18.778-20.766S68.271,25.531,59.372,24.487,42.065,32.739,40.595,45.253Z" transform="translate(1216.969 325.839)" fill="none" stroke="#030114" stroke-linecap="round" stroke-linejoin="round" stroke-width="2"/>
      <g id="Group_20450-2" data-name="Group 20450" transform="translate(1276.646 385.844) rotate(-173)">
        <g id="Group_20444-2" data-name="Group 20444">
          <path id="Path_23192-2" data-name="Path 23192" d="M4.287,25.907V22.835A7.789,7.789,0,0,1,0,21.441l.715-2.977a7.361,7.361,0,0,0,4.128,1.394,2.517,2.517,0,0,0,2.805-2.5c0-1.425-.927-2.344-2.885-3.2C1.985,12.954.185,11.433.185,8.487A5.222,5.222,0,0,1,4.446,3.1V0h2.17V2.945A7.369,7.369,0,0,1,10.267,3.99L9.552,6.9a6.893,6.893,0,0,0-3.6-1.077A2.2,2.2,0,0,0,3.44,8.044c0,1.3.953,2.027,3.2,3.1,2.963,1.33,4.287,3.041,4.287,5.859a5.469,5.469,0,0,1-4.472,5.637v3.262Z" fill="#030115"/>
        </g>
      </g>
    </g>
    <g id="Group_20452" data-name="Group 20452" transform="translate(292.755 175.936) rotate(135)" opacity="0.8">
      <path id="Path_23195-3" data-name="Path 23195" d="M.165,18.363C-.931,9.036,3.558.841,10.191.06s12.9,6.152,14,15.479S20.8,33.065,14.162,33.843s-12.9-6.152-14-15.479" transform="translate(5.463 0)" fill="#642498" stroke="#707070" stroke-width="2"/>
      <path id="Path_23196-3" data-name="Path 23196" d="M.165,18.363C-.931,9.036,3.558.841,10.191.06s12.9,6.152,14,15.479S20.8,33.065,14.162,33.843,1.26,27.691.165,18.363Z" transform="translate(5.463 0)" fill="none" stroke="#030114" stroke-linecap="round" stroke-linejoin="round" stroke-width="2"/>
      <path id="Path_23197-3" data-name="Path 23197" d="M.165,18.363C-.931,9.036,3.558.841,10.191.06s12.9,6.152,14,15.479S20.8,33.065,14.162,33.843s-12.9-6.152-14-15.479" transform="translate(0 0.64)" fill="#7c2db7" stroke="#707070" stroke-width="2"/>
      <path id="Path_23198-3" data-name="Path 23198" d="M.165,18.363C-.931,9.036,3.558.841,10.191.06s12.9,6.152,14,15.479S20.8,33.065,14.162,33.843,1.26,27.691.165,18.363Z" transform="translate(0 0.64)" fill="none" stroke="#030114" stroke-linecap="round" stroke-linejoin="round" stroke-width="2"/>
      <g id="Group_20450-3" data-name="Group 20450" transform="translate(16.537 8.132) rotate(92)">
        <g id="Group_20444-3" data-name="Group 20444" transform="translate(0 0)">
          <path id="Path_23192-3" data-name="Path 23192" d="M0,3.2H2.29A5.806,5.806,0,0,1,3.329,0L5.548.533A5.487,5.487,0,0,0,4.509,3.61,1.876,1.876,0,0,0,6.374,5.7c1.062,0,1.747-.691,2.385-2.15.9-2.071,2.03-3.412,4.226-3.412A3.892,3.892,0,0,1,17,3.314h2.314V4.931h-2.2a5.493,5.493,0,0,1-.779,2.722L14.165,7.12a5.138,5.138,0,0,0,.8-2.682,1.637,1.637,0,0,0-1.653-1.874c-.968,0-1.511.71-2.314,2.387-.992,2.209-2.267,3.2-4.368,3.2a4.077,4.077,0,0,1-4.2-3.334H0Z" fill="#030115"/>
        </g>
      </g>
    </g>
    <g id="Group_20453" data-name="Group 20453" transform="translate(1034.74 550.415) rotate(135)" opacity="0.8">
      <path id="Path_23195-4" data-name="Path 23195" d="M.115,12.808C-.65,6.3,2.482.586,7.108.042s9,4.29,9.762,10.8S14.5,23.061,9.877,23.6s-9-4.29-9.762-10.8" transform="translate(3.81 0)" fill="#642498" stroke="#707070" stroke-width="2"/>
      <path id="Path_23196-4" data-name="Path 23196" d="M.115,12.808C-.65,6.3,2.482.586,7.108.042s9,4.29,9.762,10.8S14.5,23.061,9.877,23.6.879,19.313.115,12.808Z" transform="translate(3.81 0)" fill="none" stroke="#030114" stroke-linecap="round" stroke-linejoin="round" stroke-width="2"/>
      <path id="Path_23197-4" data-name="Path 23197" d="M.115,12.808C-.65,6.3,2.482.586,7.108.042s9,4.29,9.762,10.8S14.5,23.061,9.877,23.6s-9-4.29-9.762-10.8" transform="translate(0 0.447)" fill="#7c2db7" stroke="#707070" stroke-width="2"/>
      <path id="Path_23198-4" data-name="Path 23198" d="M.115,12.808C-.65,6.3,2.482.586,7.108.042s9,4.29,9.762,10.8S14.5,23.061,9.877,23.6.879,19.313.115,12.808Z" transform="translate(0 0.447)" fill="none" stroke="#030114" stroke-linecap="round" stroke-linejoin="round" stroke-width="2"/>
      <g id="Group_20450-4" data-name="Group 20450" transform="translate(11.534 5.672) rotate(92)">
        <g id="Group_20444-4" data-name="Group 20444" transform="translate(0 0)">
          <path id="Path_23192-4" data-name="Path 23192" d="M0,2.229H1.6A4.05,4.05,0,0,1,2.322,0L3.869.372a3.827,3.827,0,0,0-.725,2.146,1.308,1.308,0,0,0,1.3,1.458c.741,0,1.219-.482,1.663-1.5C6.734,1.032,7.525.1,9.056.1a2.715,2.715,0,0,1,2.8,2.215h1.614V3.439H11.938a3.831,3.831,0,0,1-.544,1.9L9.879,4.966a3.584,3.584,0,0,0,.56-1.871A1.142,1.142,0,0,0,9.287,1.788c-.675,0-1.054.5-1.614,1.665C6.981,4.994,6.092,5.682,4.627,5.682A2.843,2.843,0,0,1,1.7,3.357H0Z" fill="#030115"/>
        </g>
      </g>
    </g>
  </g>
</svg>
