<svg xmlns="http://www.w3.org/2000/svg" width="64" height="64" viewBox="0 0 64 64">
  <g id="Group_20427" data-name="Group 20427" transform="translate(-0.25 -0.25)">
    <path id="Line_180" data-name="Line 180" d="M3.849,4.849a1,1,0,0,1-.707-.293L-.707.707a1,1,0,0,1,0-1.414,1,1,0,0,1,1.414,0L4.556,3.142a1,1,0,0,1-.707,1.707Z" transform="translate(51.142 51.426)" fill="#bf60ff"/>
    <path id="Line_181" data-name="Line 181" d="M5.443,1H0A1,1,0,0,1-1,0,1,1,0,0,1,0-1H5.443a1,1,0,0,1,1,1A1,1,0,0,1,5.443,1Z" transform="translate(54.055 46.774)" fill="#bf60ff"/>
    <path id="Line_182" data-name="Line 182" d="M0,6.443a1,1,0,0,1-1-1V0A1,1,0,0,1,0-1,1,1,0,0,1,1,0V5.443A1,1,0,0,1,0,6.443Z" transform="translate(46.489 54.339)" fill="#bf60ff"/>
    <path id="Line_183" data-name="Line 183" d="M3.849,4.849a1,1,0,0,1-.707-.293L-.707.707a1,1,0,0,1,0-1.414,1,1,0,0,1,1.414,0L4.556,3.142a1,1,0,0,1-.707,1.707Z" transform="translate(9.072 9.356)" fill="#bf60ff"/>
    <path id="Line_184" data-name="Line 184" d="M5.443,1H0A1,1,0,0,1-1,0,1,1,0,0,1,0-1H5.443a1,1,0,0,1,1,1A1,1,0,0,1,5.443,1Z" transform="translate(4.565 17.858)" fill="#bf60ff"/>
    <path id="Line_185" data-name="Line 185" d="M0,6.443a1,1,0,0,1-1-1V0A1,1,0,0,1,0-1,1,1,0,0,1,1,0V5.443A1,1,0,0,1,0,6.443Z" transform="translate(17.573 4.85)" fill="#bf60ff"/>
    <g id="Group_20426" data-name="Group 20426" transform="translate(0.25 0.25)">
      <g id="Group_20428" data-name="Group 20428" transform="translate(0 0)">
        <path id="Path_23161" data-name="Path 23161" d="M40.191.25a2.528,2.528,0,0,1,1.8.744l7.343,7.343a2.3,2.3,0,0,1,.8,1.863c-.142,1.271-1.458,2.461-5.632,5.093a2.033,2.033,0,0,0-.9,1.549,3.733,3.733,0,0,0,3.72,4.076A2.165,2.165,0,0,0,49.208,20a36.128,36.128,0,0,1,2.935-4.187c1.124-1.29,1.855-1.456,2.366-1.456a2.342,2.342,0,0,1,1.655.813l7.343,7.343a2.555,2.555,0,0,1-.006,3.61l-25.2,25.2a2.344,2.344,0,0,1-1.655.814,3.45,3.45,0,0,1-2.364-1.456,36.248,36.248,0,0,1-2.936-4.188,2.165,2.165,0,0,0-1.888-.919,3.721,3.721,0,0,0-3.714,4.068,2.035,2.035,0,0,0,.9,1.55c4.176,2.641,5.492,3.831,5.632,5.1a2.3,2.3,0,0,1-.8,1.859L26.117,63.5a2.548,2.548,0,0,1-3.6,0L1,41.988a2.548,2.548,0,0,1,0-3.6L6.36,33.021a2.34,2.34,0,0,1,1.652-.813,3.451,3.451,0,0,1,2.363,1.456,36.535,36.535,0,0,1,2.939,4.186,2.169,2.169,0,0,0,1.891.922A3.722,3.722,0,0,0,18.914,34.7a2.031,2.031,0,0,0-.9-1.547c-4.175-2.633-5.491-3.823-5.633-5.092a2.307,2.307,0,0,1,.8-1.863L38.381,1A2.542,2.542,0,0,1,40.191.25ZM48.135,10a1.535,1.535,0,0,0-.216-.252L40.576,2.409a.54.54,0,0,0-.385-.158.554.554,0,0,0-.394.163l-25.2,25.2a1.556,1.556,0,0,0-.217.253,3.353,3.353,0,0,0,.931.988,37.791,37.791,0,0,0,3.769,2.605A4,4,0,0,1,20.9,34.476,5.784,5.784,0,0,1,19.255,39.1,5.847,5.847,0,0,1,15.2,40.774a4.108,4.108,0,0,1-3.584-1.856,38.141,38.141,0,0,0-2.607-3.765,3.387,3.387,0,0,0-.989-.933,1.565,1.565,0,0,0-.25.215L2.412,39.8a.548.548,0,0,0,0,.774L23.928,62.088a.547.547,0,0,0,.774,0l5.363-5.362a1.566,1.566,0,0,0,.216-.251,3.382,3.382,0,0,0-.933-.989,38.132,38.132,0,0,0-3.767-2.608,4,4,0,0,1-1.823-3.02A5.773,5.773,0,0,1,25.4,45.245a5.858,5.858,0,0,1,4.059-1.679,4.1,4.1,0,0,1,3.581,1.853,37.786,37.786,0,0,0,2.6,3.768,3.352,3.352,0,0,0,.988.931,1.555,1.555,0,0,0,.253-.217l25.2-25.2a.552.552,0,0,0,.006-.779l-7.343-7.343a1.536,1.536,0,0,0-.252-.216,3.332,3.332,0,0,0-.989.93A37.62,37.62,0,0,0,50.9,21.064a4.106,4.106,0,0,1-3.58,1.855,5.86,5.86,0,0,1-4.059-1.681,5.784,5.784,0,0,1-1.65-4.62A4,4,0,0,1,43.436,13.6a37.619,37.619,0,0,0,3.769-2.606A3.331,3.331,0,0,0,48.135,10Z" transform="translate(-0.25 -0.25)" fill="#bf60ff"/>
        <path id="Line_186" data-name="Line 186" d="M8.433,9.433a1,1,0,0,1-.707-.293L-.707.707a1,1,0,0,1,0-1.414,1,1,0,0,1,1.414,0L9.14,7.726a1,1,0,0,1-.707,1.707Z" transform="translate(20.149 20.15)" fill="#bf60ff"/>
        <path id="Line_187" data-name="Line 187" d="M8.433,9.433a1,1,0,0,1-.707-.293L-.707.707a1,1,0,0,1,0-1.414,1,1,0,0,1,1.414,0L9.14,7.726a1,1,0,0,1-.707,1.707Z" transform="translate(35.417 35.418)" fill="#bf60ff"/>
        <path id="Path_23162" data-name="Path 23162" d="M36.625,69.234a1,1,0,0,1-.707-1.707,1.565,1.565,0,0,0,.215-.25,3.38,3.38,0,0,0-.932-.988,38.107,38.107,0,0,0-3.764-2.606,3.994,3.994,0,0,1-1.822-3.016,5.715,5.715,0,0,1,6.264-6.257,3.991,3.991,0,0,1,3.014,1.821,37.724,37.724,0,0,0,2.6,3.765,3.349,3.349,0,0,0,.988.93,1.552,1.552,0,0,0,.252-.216,1,1,0,1,1,1.414,1.414,2.3,2.3,0,0,1-1.861.8c-1.268-.142-2.457-1.457-5.089-5.628a2.028,2.028,0,0,0-1.545-.9A3.716,3.716,0,0,0,31.6,60.442a2.032,2.032,0,0,0,.9,1.548c4.173,2.639,5.488,3.829,5.628,5.093a2.3,2.3,0,0,1-.8,1.858A1,1,0,0,1,36.625,69.234Z" transform="translate(-6.104 -11.045)" fill="#bf60ff"/>
        <path id="Path_23163" data-name="Path 23163" d="M16.66,47.167a5.141,5.141,0,0,1-.573-.032,4,4,0,0,1-3.018-1.824,38.079,38.079,0,0,0-2.605-3.762,3.375,3.375,0,0,0-.988-.932,1.563,1.563,0,0,0-.251.216A1,1,0,0,1,7.81,39.418a2.3,2.3,0,0,1,1.858-.8c1.264.141,2.454,1.455,5.092,5.627a2.033,2.033,0,0,0,1.549.9A3.716,3.716,0,0,0,20.355,41.1a2.029,2.029,0,0,0-.9-1.546c-4.171-2.632-5.486-3.821-5.628-5.089a2.3,2.3,0,0,1,.8-1.86,1,1,0,0,1,1.415,1.414,1.55,1.55,0,0,0-.216.252,3.347,3.347,0,0,0,.93.988,37.725,37.725,0,0,0,3.766,2.6,3.991,3.991,0,0,1,1.82,3.015,5.721,5.721,0,0,1-5.683,6.294Z" transform="translate(-1.706 -6.647)" fill="#bf60ff"/>
        <path id="Path_23164" data-name="Path 23164" d="M42.541,42.03a1,1,0,0,1-.707-.293,2.3,2.3,0,0,1-.8-1.861c.142-1.268,1.457-2.457,5.628-5.089a2.033,2.033,0,0,0,.9-1.549,3.722,3.722,0,0,0-4.052-4.051,2.032,2.032,0,0,0-1.548.9c-2.632,4.172-3.821,5.487-5.089,5.629a2.3,2.3,0,0,1-1.861-.8A1,1,0,0,1,36.427,33.5a1.549,1.549,0,0,0,.252.216,3.351,3.351,0,0,0,.988-.931,37.82,37.82,0,0,0,2.6-3.766A4,4,0,0,1,43.288,27.2a5.721,5.721,0,0,1,6.262,6.261,4,4,0,0,1-1.821,3.018,37.812,37.812,0,0,0-3.765,2.6,3.35,3.35,0,0,0-.931.988,1.549,1.549,0,0,0,.216.252,1,1,0,0,1-.707,1.707Z" transform="translate(-7.128 -5.621)" fill="#bf60ff"/>
      </g>
    </g>
  </g>
</svg>
