<svg xmlns="http://www.w3.org/2000/svg" width="64" height="64" viewBox="0 0 64 64">
  <g id="Group_20424" data-name="Group 20424" transform="translate(-1040 -1677)">
    <g id="Ellipse_151" data-name="Ellipse 151" transform="translate(1056.353 1695.795) rotate(1)" fill="#601394" stroke="#bf60ff" stroke-width="2">
      <circle cx="16" cy="16" r="16" stroke="none"/>
      <circle cx="16" cy="16" r="15" fill="none"/>
    </g>
    <g id="Ellipse_152" data-name="Ellipse 152" transform="translate(1092.002 1728.792) rotate(1)" fill="#601394" stroke="#bf60ff" stroke-width="2">
      <circle cx="6" cy="6" r="6" stroke="none"/>
      <circle cx="6" cy="6" r="5" fill="none"/>
    </g>
    <g id="Ellipse_153" data-name="Ellipse 153" transform="translate(1040.209 1728.792) rotate(1)" fill="#601394" stroke="#bf60ff" stroke-width="2">
      <circle cx="6" cy="6" r="6" stroke="none"/>
      <circle cx="6" cy="6" r="5" fill="none"/>
    </g>
    <g id="Ellipse_154" data-name="Ellipse 154" transform="translate(1066.209 1677) rotate(1)" fill="#601394" stroke="#bf60ff" stroke-width="2">
      <circle cx="6" cy="6" r="6" stroke="none"/>
      <circle cx="6" cy="6" r="5" fill="none"/>
    </g>
    <g id="Group_20422" data-name="Group 20422" transform="translate(1065.724 1706.709)">
      <g id="Group_20423" data-name="Group 20423" transform="translate(0.001 0)">
        <path id="Path_23158" data-name="Path 23158" d="M4.08,3.359l.764-1.526c.224-.448.441-.9.673-1.345a.821.821,0,0,1,1.269-.3,1.2,1.2,0,0,1,.287.384c.432.847.853,1.7,1.278,2.548.037.074.077.147.123.235.111-.043.217-.082.322-.124.853-.341,1.705-.685,2.56-1.023a.83.83,0,0,1,1,.215.8.8,0,0,1,.184.688q-.194,1.167-.393,2.332-.289,1.69-.582,3.38a.663.663,0,0,1-.892.628,24.924,24.924,0,0,0-4.8-.39,26.467,26.467,0,0,0-4.082.4A.634.634,0,0,1,1,8.886Q.777,7.6.559,6.323.3,4.779.031,3.236A1.421,1.421,0,0,1,0,2.909.826.826,0,0,1,1.164,2.2c.61.231,1.213.482,1.819.725l1.1.437" transform="translate(-0.001 0)" fill="none" stroke="#bf60ff" stroke-linecap="round" stroke-linejoin="round" stroke-width="2"/>
      </g>
    </g>
    <path id="Path_23159" data-name="Path 23159" d="M-535.3-13969.474l-11.361-9.729" transform="translate(1630 15701)" fill="none" stroke="#bf60ff" stroke-width="2"/>
    <path id="Path_23160" data-name="Path 23160" d="M-546.662-13969.474l11.361-9.729" transform="translate(1596.776 15701)" fill="none" stroke="#bf60ff" stroke-width="2"/>
    <line id="Line_179" data-name="Line 179" y2="8" transform="translate(1072 1688)" fill="none" stroke="#bf60ff" stroke-width="2"/>
  </g>
</svg>
