<svg xmlns="http://www.w3.org/2000/svg" width="48" height="48" viewBox="0 0 48 48">
  <g id="Group_20418" data-name="Group 20418" transform="translate(1 1.211)">
    <path id="Path_23155" data-name="Path 23155" d="M22.849,35.061s4.229-.492,6.6,1.128,3.792,2.5,4.22,4.8a16.337,16.337,0,0,1,0,4.879H11.793s-.305-3.507.643-5.345a11.059,11.059,0,0,1,4.688-4.336A28.465,28.465,0,0,1,22.849,35.061Z" fill="#a7cbeb"/>
    <path id="Path_23156" data-name="Path 23156" d="M19.339,35.038s2.892-.337,4.511.771,2.593,1.711,2.886,3.284a11.172,11.172,0,0,1,0,3.336H11.778a8.59,8.59,0,0,1,.44-3.655,7.563,7.563,0,0,1,3.206-2.965A19.465,19.465,0,0,1,19.339,35.038Z" transform="translate(18.264 -2)" fill="#a7cbeb"/>
    <path id="Path_23157" data-name="Path 23157" d="M19.339,35.038s2.892-.337,4.511.771,2.593,1.711,2.886,3.284a11.172,11.172,0,0,1,0,3.336H11.778a8.59,8.59,0,0,1,.44-3.655,7.563,7.563,0,0,1,3.206-2.965A19.465,19.465,0,0,1,19.339,35.038Z" transform="translate(-11.142 -2)" fill="#a7cbeb"/>
    <path id="Path_23146" data-name="Path 23146" d="M61.378,50.1a5.684,5.684,0,0,1-4-1.626,5.458,5.458,0,0,1-1.658-3.925,5.664,5.664,0,1,1,5.662,5.55Zm0-9.1a3.59,3.59,0,0,0-3.623,3.549,3.49,3.49,0,0,0,1.06,2.51,3.635,3.635,0,0,0,2.561,1.04,3.55,3.55,0,1,0,0-7.1Z" transform="translate(-23.809 -16.741)" fill="#093053"/>
    <path id="Path_23147" data-name="Path 23147" d="M67.5,64.909H55.353a1,1,0,1,1,0-2H66.525a14.977,14.977,0,0,0-.03-2.222c-.493-2.618-3.553-4.033-6.182-4.036H58.231a7.839,7.839,0,0,0-3.693.926,4.918,4.918,0,0,0-2.3,2.452,1.027,1.027,0,0,1-1.314.585.994.994,0,0,1-.6-1.288,6.824,6.824,0,0,1,3.218-3.5,9.947,9.947,0,0,1,4.686-1.18h2.085a9.783,9.783,0,0,1,5.12,1.432A6.474,6.474,0,0,1,68.5,60.324a22.35,22.35,0,0,1,.015,3.645A1.012,1.012,0,0,1,67.5,64.909Z" transform="translate(-21.59 -23.291)" fill="#093053"/>
    <path id="Path_23148" data-name="Path 23148" d="M11.88,50.1a5.684,5.684,0,0,1-4-1.626,5.458,5.458,0,0,1-1.658-3.925A5.664,5.664,0,1,1,11.88,50.1Zm0-9.1A3.59,3.59,0,0,0,8.259,44.55a3.49,3.49,0,0,0,1.06,2.51A3.635,3.635,0,0,0,11.88,48.1a3.55,3.55,0,1,0,0-7.1Z" transform="translate(-3.677 -16.741)" fill="#093053"/>
    <path id="Path_23149" data-name="Path 23149" d="M13.76,64.909H1.34a1.012,1.012,0,0,1-1.019-.94,22.27,22.27,0,0,1,.015-3.645,6.472,6.472,0,0,1,3.068-4.241A9.785,9.785,0,0,1,8.523,54.65h2.085A9.951,9.951,0,0,1,15.3,55.829a6.826,6.826,0,0,1,3.217,3.494.994.994,0,0,1-.6,1.288,1.027,1.027,0,0,1-1.314-.585,4.919,4.919,0,0,0-2.3-2.45,7.842,7.842,0,0,0-3.695-.926H8.524c-2.628,0-5.688,1.419-6.18,4.036a14.915,14.915,0,0,0-.03,2.222H13.76a1,1,0,1,1,0,2Z" transform="translate(-1.25 -23.291)" fill="#093053"/>
    <path id="Path_23150" data-name="Path 23150" d="M35.617,52.811h0a7.073,7.073,0,0,1-4.981-2.023A6.79,6.79,0,0,1,28.572,45.9a7.047,7.047,0,1,1,7.045,6.906Zm0-11.81a4.961,4.961,0,0,0-5.006,4.9,4.823,4.823,0,0,0,1.465,3.468,5.024,5.024,0,0,0,3.539,1.437,4.906,4.906,0,1,0,0-9.81Z" transform="translate(-12.769 -16.741)" fill="#093053"/>
    <path id="Path_23151" data-name="Path 23151" d="M43.29,72.031H21.937a1.012,1.012,0,0,1-1.019-.94,29.754,29.754,0,0,1,.015-4.658,8,8,0,0,1,3.847-5.309,12.386,12.386,0,0,1,6.479-1.812h2.705a12.387,12.387,0,0,1,6.482,1.812,8,8,0,0,1,3.845,5.308,29.751,29.751,0,0,1,.015,4.658A1.012,1.012,0,0,1,43.29,72.031Zm-20.381-2h19.41a21.379,21.379,0,0,0-.032-3.236c-.669-3.556-4.787-5.479-8.322-5.483h-2.7c-3.534,0-7.652,1.927-8.321,5.483A21.364,21.364,0,0,0,22.908,70.03Z" transform="translate(-9.618 -25.242)" fill="#093053"/>
    <path id="Path_23152" data-name="Path 23152" d="M61.419,32.627a1.01,1.01,0,0,1-1.02-1,13.423,13.423,0,0,0-4.885-10.336.986.986,0,0,1-.118-1.41,1.035,1.035,0,0,1,1.438-.116,15.4,15.4,0,0,1,5.606,11.861A1.01,1.01,0,0,1,61.419,32.627Z" transform="translate(-23.58 -8.592)" fill="#093053"/>
    <path id="Path_23153" data-name="Path 23153" d="M14.974,32.627a1.01,1.01,0,0,1-1.02-1,15.406,15.406,0,0,1,5.605-11.861A1.035,1.035,0,0,1,21,19.882a.986.986,0,0,1-.118,1.41,13.425,13.425,0,0,0-4.885,10.336A1.01,1.01,0,0,1,14.974,32.627Z" transform="translate(-6.823 -8.592)" fill="#093053"/>
    <path id="Line_178" data-name="Line 178" d="M.52,3.909H-.5V0H.52Z" transform="translate(22.985 19.35)" fill="#093053"/>
    <path id="Line_179" data-name="Line 179" d="M.02,5.968a1.01,1.01,0,0,1-1.02-1V0A1.01,1.01,0,0,1,.02-1a1.01,1.01,0,0,1,1.02,1V4.968A1.01,1.01,0,0,1,.02,5.968Z" transform="translate(22.975 18.292)" fill="#093053"/>
    <ellipse id="Ellipse_145" data-name="Ellipse 145" cx="10.204" cy="10.001" rx="10.204" ry="10.001" transform="translate(13.008 -1.211)" fill="#a7cbeb"/>
    <path id="Ellipse_145_-_Outline" data-name="Ellipse 145 - Outline" d="M10.2,2a8.093,8.093,0,0,0-8.164,8A8.093,8.093,0,0,0,10.2,18a8.093,8.093,0,0,0,8.164-8A8.093,8.093,0,0,0,10.2,2m0-2a10.1,10.1,0,0,1,10.2,10A10.1,10.1,0,0,1,10.2,20,10.1,10.1,0,0,1,0,10,10.1,10.1,0,0,1,10.2,0Z" transform="translate(13.008 -1.211)" fill="#093053"/>
    <path id="Path_23154" data-name="Path 23154" d="M.9-8.593c0-2.64-3.94-1.92-3.94-3.183,0-.355.33-.532.82-.532a5.634,5.634,0,0,1,2.385.762L.877-13a5.732,5.732,0,0,0-2.406-.793v-1.492H-2.935v1.544c-1.288.24-2.1,1.012-2.1,2.129,0,2.588,3.94,1.816,3.94,3.11,0,.417-.373.637-.969.637a4.7,4.7,0,0,1-2.694-1.1l-.735,1.43a5.421,5.421,0,0,0,2.555,1.1v1.618h1.405V-6.391C-.134-6.547.9-7.3.9-8.593Z" transform="translate(25.641 19.072)" fill="#093053"/>
  </g>
</svg>
