<svg xmlns="http://www.w3.org/2000/svg" xmlns:xlink="http://www.w3.org/1999/xlink" width="103.784" height="32" viewBox="0 0 103.784 32">
  <defs>
    <linearGradient id="linear-gradient" x1="0.321" y1="0.578" x2="0.055" y2="0.576" gradientUnits="objectBoundingBox">
      <stop offset="0" stop-color="#0f84b2"/>
      <stop offset="1" stop-color="#30d7c9"/>
    </linearGradient>
    <linearGradient id="linear-gradient-2" x1="0.413" y1="0.376" x2="0.401" y2="0.074" gradientUnits="objectBoundingBox">
      <stop offset="0" stop-color="#f07072"/>
      <stop offset="1" stop-color="#f09b51"/>
    </linearGradient>
    <linearGradient id="linear-gradient-3" x1="0.583" y1="0.677" x2="0.575" y2="0.946" gradientUnits="objectBoundingBox">
      <stop offset="0" stop-color="#ba41b2"/>
      <stop offset="1" stop-color="#d52e98"/>
    </linearGradient>
    <clipPath id="clip-path">
      <path id="Path_2087" data-name="Path 2087" d="M259.05,1.057c-.559,1.222-1.026,2.488-1.5,3.745-.451,1.185-.855,2.387-1.3,3.573a10.336,10.336,0,0,0-.741,3.053,2.5,2.5,0,0,0,2,2.762,20.732,20.732,0,0,0,2.209.3c1.32-.063,2.293-.122,3.266-.153,1.891-.061,3.782-.1,5.673-.162a7.559,7.559,0,0,0,1.328-.146,1.112,1.112,0,0,0,.9-1.141c-.043-.417-.5-.729-1.086-.764-1.509-.089-3.022-.131-4.523-.292a18.7,18.7,0,0,1-3.227-.621A1.8,1.8,0,0,1,260.6,8.99a6.888,6.888,0,0,1,.288-1.059c.5-1.4,1.047-2.784,1.525-4.191a2.975,2.975,0,0,0,.21-2.2A2.141,2.141,0,0,0,261.1.049,2.527,2.527,0,0,0,260.62,0a1.639,1.639,0,0,0-1.57,1.056" transform="translate(-255.498 -0.001)" fill="url(#linear-gradient)"/>
    </clipPath>
    <clipPath id="clip-path-2">
      <path id="Path_2088" data-name="Path 2088" d="M252.413,46.342a2.306,2.306,0,0,0-1.642,1.664c-.406,1.247-.716,2.526-1.041,3.8-.212.831-.376,1.673-.571,2.508-.264,1.135-.566,2.263-.785,3.407a1.409,1.409,0,0,0,.251.924.763.763,0,0,0,1.359-.131,2.742,2.742,0,0,0,.13-.317c.463-1.351.877-2.721,1.4-4.048a14.227,14.227,0,0,1,1.257-2.387,1.351,1.351,0,0,1,1.713-.567,12.86,12.86,0,0,1,1.571.91c.947.641,1.86,1.333,2.808,1.973a3.07,3.07,0,0,0,1.6.64,5.97,5.97,0,0,0,.936-.3,1.532,1.532,0,0,0,.985-1.607,2.258,2.258,0,0,0-1.1-1.583c-1.141-.844-2.282-1.689-3.452-2.491-1.065-.729-2.151-1.431-3.26-2.09a2.776,2.776,0,0,0-1.433-.4,3.048,3.048,0,0,0-.728.09" transform="translate(-248.362 -46.252)" fill="url(#linear-gradient-2)"/>
    </clipPath>
    <clipPath id="clip-path-3">
      <rect id="Rectangle_2114" data-name="Rectangle 2114" width="103.784" height="32" fill="none"/>
    </clipPath>
    <clipPath id="clip-path-4">
      <path id="Path_2091" data-name="Path 2091" d="M232.468,0c-.322.022-.572.364-.613.816-.1,1.157-.173,2.319-.332,3.468a14.445,14.445,0,0,1-.554,2.464,1.383,1.383,0,0,1-1.746,1.055,5.234,5.234,0,0,1-.807-.247c-1.062-.42-2.113-.871-3.182-1.272a2.291,2.291,0,0,0-1.684-.214,1.646,1.646,0,0,0-1.184,1.132,1.306,1.306,0,0,0,.725,1.6c.925.459,1.887.848,2.841,1.246.9.375,1.813.714,2.714,1.085a7.952,7.952,0,0,0,2.328.642,1.92,1.92,0,0,0,2.169-1.467,15.95,15.95,0,0,0,.287-1.69c-.017-1.016-.039-1.764-.039-2.513,0-1.454.015-2.908.012-4.362a5.792,5.792,0,0,0-.08-1.024.862.862,0,0,0-.808-.72l-.048,0" transform="translate(-222.316 -0.001)" fill="url(#linear-gradient-3)"/>
    </clipPath>
  </defs>
  <g id="Group_20175" data-name="Group 20175" transform="translate(-92 -191)">
    <g id="Group_20185" data-name="Group 20185" transform="translate(92 191)">
      <g id="Group_20176" data-name="Group 20176" transform="translate(88.402 0)">
        <g id="Group_20175-2" data-name="Group 20175" clip-path="url(#clip-path)">
          <rect id="Rectangle_2112" data-name="Rectangle 2112" width="20.689" height="20.323" transform="translate(-6.374 3.661) rotate(-30.174)" fill="url(#linear-gradient)"/>
        </g>
      </g>
      <g id="Group_20178" data-name="Group 20178" transform="translate(85.933 16.003)">
        <g id="Group_20177" data-name="Group 20177" clip-path="url(#clip-path-2)">
          <rect id="Rectangle_2113" data-name="Rectangle 2113" width="16.85" height="15.964" transform="matrix(0.97, -0.241, 0.241, 0.97, -3.069, 0.752)" fill="url(#linear-gradient-2)"/>
        </g>
      </g>
      <g id="Group_20180" data-name="Group 20180">
        <g id="Group_20179" data-name="Group 20179" clip-path="url(#clip-path-3)">
          <path id="Path_2089" data-name="Path 2089" d="M278.791,22.662a1.518,1.518,0,0,1-1.537,1.584,1.623,1.623,0,0,1-1.579-1.53,1.553,1.553,0,0,1,1.579-1.59,1.49,1.49,0,0,1,1.537,1.537" transform="translate(-180.292 -13.816)" fill="#0f84b2"/>
          <path id="Path_2090" data-name="Path 2090" d="M264.408,66.018a1.323,1.323,0,0,1-1.34,1.38,1.415,1.415,0,0,1-1.376-1.333,1.354,1.354,0,0,1,1.376-1.386,1.3,1.3,0,0,1,1.34,1.339" transform="translate(-171.147 -42.3)" fill="#f07072"/>
        </g>
      </g>
      <g id="Group_20182" data-name="Group 20182" transform="translate(76.921 0)">
        <g id="Group_20181" data-name="Group 20181" clip-path="url(#clip-path-4)">
          <rect id="Rectangle_2115" data-name="Rectangle 2115" width="15.598" height="15.846" transform="translate(-5.175 2.839) rotate(-29.275)" fill="url(#linear-gradient-3)"/>
        </g>
      </g>
      <g id="Group_20184" data-name="Group 20184" transform="translate(0 4.918)">
        <g id="Group_20186" data-name="Group 20186">
          <path id="Path_2093" data-name="Path 2093" d="M86.693,23.592c-.2-.407-.593-.374-.96-.375H71.277V23.2H31.8c-.042-.3-.049-1.322-.049-1.63,0-2.314,0-4.628,0-6.942,0-.445-.09-.5-.479-.309-.093.045-.186.09-.281.13a1.856,1.856,0,0,0-1.271,1.968c.059,1.51.019,3.024.012,4.536,0,.33-.016,1.591-.044,2.247H4.124V19.188a.3.3,0,0,0-.3-.3H2.474a.3.3,0,0,0-.3.3V23.2H1.168a3.082,3.082,0,0,0-.48.028.7.7,0,0,0-.633.47A.894.894,0,0,0,0,23.992c0,.033,0,.065,0,.1,0,.049,0,.1,0,.147s0,.112,0,.169a.856.856,0,0,0,.082.373c.115.324.362.44.807.4.3-.023.6-.043.893-.043h.393v2.849s0,.009,0,.014q0,2.386,0,4.772,0,2.334,0,4.669c0,.7.011.7.606.373.05-.028.1-.048.155-.073a1.957,1.957,0,0,0,1.188-2c-.04-2.08-.026-4.161-.012-6.242h.013V25.14l25.534,0a19.241,19.241,0,0,1,.065,2.154.806.806,0,0,1-1.154.682c-.184-.063-.36-.147-.54-.22-.307-.124-.606-.271-.921-.365a5.088,5.088,0,0,0-3.462.29,5.023,5.023,0,0,0-3.073,3.577,5.478,5.478,0,0,0,.619,4.267,5.24,5.24,0,0,0,3.508,2.6,5.315,5.315,0,0,0,3.964-.672c.586-.337.921-.213,1.131.408.1.3.233.352.518.2a2.476,2.476,0,0,0,1.426-2.013c.061-.622.013-1.256.012-1.884q0-2.251-.008-4.5c0-1.088-.007-3.388,0-4.476,0-.017,0-.029,0-.045,21.743,0,47.873.008,53.5.019a1.307,1.307,0,0,0,1.186-.6c.2-.295.453-.577.262-.966M29.149,34.426a7.4,7.4,0,0,1-.683,1.748,3.075,3.075,0,0,1-2.717,1.631,3.121,3.121,0,0,1-2.614-1.474A6.1,6.1,0,0,1,22.07,31.61,4.652,4.652,0,0,1,24.575,28a2.374,2.374,0,0,1,2.742.381,7.389,7.389,0,0,1,2.047,3.807,4.814,4.814,0,0,1-.214,2.237" transform="translate(0 -14.215)" fill="#fff"/>
          <path id="Path_2094" data-name="Path 2094" d="M216.406,58.51c0-1.317.014-2.633-.006-3.95a.972.972,0,0,0-1.1-.967c-.542.034-.818.386-.8,1.029.005.171.034.342.046.513a7.471,7.471,0,0,1,.071,1.2,3.008,3.008,0,0,1-1.79,2.392,1.306,1.306,0,0,1-.992-.025,2.87,2.87,0,0,1-1.7-2.881c.029-.376.1-.748.146-1.123.077-.613.175-1.224.219-1.84.032-.446-.221-.682-.668-.688a5.234,5.234,0,0,0-.823.045.541.541,0,0,0-.529.537c0,1.385-.036,2.774.066,4.152a2.6,2.6,0,0,0,1.29,2.048,4.254,4.254,0,0,0,2.695.453c.4-.03.8-.092,1.2-.108a.7.7,0,0,1,.823.688,23.324,23.324,0,0,1-.058,2.538,2.31,2.31,0,0,1-.952,1.613,4.066,4.066,0,0,1-2.525.844,3.143,3.143,0,0,1-2.4-1c-.474-.494-.389-.971.228-1.26a13.075,13.075,0,0,1,1.309-.511.936.936,0,0,0,.714-1.12.921.921,0,0,0-1.073-.649,3.753,3.753,0,0,0-2.3,1.061,1.475,1.475,0,0,0-.455.819,3.252,3.252,0,0,0,1.117,2.956,4.237,4.237,0,0,0,3.077.835,9.372,9.372,0,0,0,3.466-.921,2.328,2.328,0,0,0,1.42-1.359,7.073,7.073,0,0,0,.321-1.743c.049-1.189.015-2.381.015-3.572h-.059" transform="translate(-135.399 -39.035)" fill="#fff"/>
          <path id="Path_2095" data-name="Path 2095" d="M125.052,57.807c.081-1.105.167-2.21.251-3.315l-.072-.006c0-.286.006-.573,0-.859a9.923,9.923,0,0,0-.061-1.437c-.172-.989-.88-1.264-1.713-.71a1.53,1.53,0,0,1-1.562.171,7.065,7.065,0,0,0-1.141-.37,4.911,4.911,0,0,0-3.723.475,5.814,5.814,0,0,0-2.808,3.455,5.351,5.351,0,0,0,1.251,5.11,4.785,4.785,0,0,0,3.24,1.77,5.778,5.778,0,0,0,3.662-.608c.264-.152.455-.112.591.163.051.1.094.209.147.31.177.331.36.432.7.286a4.005,4.005,0,0,0,1.671-1.166.921.921,0,0,0,.049-1.065,2.637,2.637,0,0,1-.48-2.2m-2.269,1.207a3.9,3.9,0,0,1-1.821,2.311,2.91,2.91,0,0,1-3.165-.261,5.735,5.735,0,0,1-1.941-4.488,5.229,5.229,0,0,1,2.043-4.426,2.6,2.6,0,0,1,3.306.136,7.166,7.166,0,0,1,1.988,3.8,6.4,6.4,0,0,1-.411,2.929" transform="translate(-74.557 -38.347)" fill="#fff"/>
          <path id="Path_2096" data-name="Path 2096" d="M28.39,51.263a5.462,5.462,0,0,0-3.847.4,1.255,1.255,0,0,1-1.531-.116,1.088,1.088,0,0,0-1.272-.233,1.134,1.134,0,0,0-.645,1.154c.016,1.523.006,3.046.005,4.57q0,2.216,0,4.432c0,.8.012.82.717.449a2.271,2.271,0,0,0,1.338-1.829,17.365,17.365,0,0,0-.028-2.121,8.536,8.536,0,0,1,.807-4.371,3.376,3.376,0,0,1,2.84-1.953,3.226,3.226,0,0,1,3.042,1.834,5.975,5.975,0,0,1,.759,4.366,5.288,5.288,0,0,1-.949,2.288A4.1,4.1,0,0,1,27.55,61.58c-.181.057-.385.149-.294.373.037.092.259.168.388.156a5.332,5.332,0,0,0,3.9-2.472A5.522,5.522,0,0,0,32.4,55.9a5.729,5.729,0,0,0-4.013-4.642" transform="translate(-13.797 -38.318)" fill="#fff"/>
          <path id="Path_2097" data-name="Path 2097" d="M179.457,56.1a4.014,4.014,0,0,0-4.612,1.21,7.193,7.193,0,0,0-1.777,5c.05.335.1.917.23,1.483a4.4,4.4,0,0,0,3.356,3.681,3.561,3.561,0,0,0,3.007-.566,6.088,6.088,0,0,0,2.221-3.021,7.211,7.211,0,0,0,.151-5.133,4.277,4.277,0,0,0-2.575-2.649m.939,7.432a4.881,4.881,0,0,1-1.205,2.786,1.96,1.96,0,0,1-2.8-.107,4.993,4.993,0,0,1-1.222-2.676A15.906,15.906,0,0,1,175,61.875a8.7,8.7,0,0,1,.644-3.774,2.63,2.63,0,0,1,1.68-1.552,1.766,1.766,0,0,1,1.678.469,3.912,3.912,0,0,1,1.158,1.951,10.469,10.469,0,0,1,.236,4.559" transform="translate(-113.187 -41.415)" fill="#fff"/>
          <path id="Path_2098" data-name="Path 2098" d="M157.692,53.4c-.025-.639-.217-.809-.842-.821-.866-.016-1.031.128-1.038,1-.012,1.659,0,3.319,0,4.979h-.041c0,1.705,0,3.411-.006,5.116a.751.751,0,0,1-.15.5A1.175,1.175,0,0,1,154,63.979a1.673,1.673,0,0,0-.578-.455.8.8,0,0,0-.856.289.5.5,0,0,0-.013.636,5.1,5.1,0,0,0,1.459,1.431,2.59,2.59,0,0,0,3.352-.875,4.008,4.008,0,0,0,.385-2q0-3.673-.022-7.346c0-.755-.009-1.511-.038-2.265" transform="translate(-99.701 -39.302)" fill="#fff"/>
          <path id="Path_2099" data-name="Path 2099" d="M102.657,52.749a2.734,2.734,0,0,0-.055-.544.514.514,0,0,0-.531-.445q-.378-.01-.757,0c-.543.016-.722.193-.725.729q-.021,4.947-.038,9.894c0,.263.117.347.345.225.332-.18.663-.366.975-.577a1.586,1.586,0,0,0,.766-1.379c0-1.363,0-2.725,0-4.088h.024c0-1.272,0-2.543,0-3.814" transform="translate(-65.761 -38.766)" fill="#fff"/>
          <path id="Path_2100" data-name="Path 2100" d="M159.616,29.9a.618.618,0,0,0,.715.2,1.019,1.019,0,0,0,.5-.836,1.829,1.829,0,0,0-.232-.4c-.494-.524-.99-1.048-1.512-1.543-.58-.55-.592-.537-1.235-.072-.34.246-.4.5-.106.8.607.635,1.243,1.242,1.874,1.854" transform="translate(-103.041 -22.512)" fill="#fff"/>
          <path id="Path_2101" data-name="Path 2101" d="M101.83,30.421c.283.255.5.193.813-.153.218-.244.216-.428-.04-.685-.524-.527-1.053-1.049-1.592-1.561a1.412,1.412,0,0,0-.368-.195c-.173.037-.288.051-.4.086-.5.165-.592.414-.23.784.582.6,1.194,1.165,1.813,1.723" transform="translate(-65.268 -23.118)" fill="#fff"/>
        </g>
      </g>
      <path id="Path_2102" data-name="Path 2102" d="M239.4,11.276a1.167,1.167,0,0,1,1.18,1.219,1.248,1.248,0,0,1-1.213,1.177,1.194,1.194,0,0,1-1.184-1.251,1.145,1.145,0,0,1,1.218-1.144" transform="translate(-155.77 -7.374)" fill="#ab41a4"/>
    </g>
  </g>
</svg>
