<svg xmlns="http://www.w3.org/2000/svg" xmlns:xlink="http://www.w3.org/1999/xlink" width="104.236" height="105.059" viewBox="0 0 104.236 105.059">
  <defs>
    <clipPath id="clip-path">
      <path id="Path_23188" data-name="Path 23188" d="M1.111,31.76C-3.753,53.2,7.8,74.1,26.923,78.435S65.486,68.908,70.35,47.468,63.657,5.131,44.538.793A31.947,31.947,0,0,0,37.461,0C20.835,0,5.374,12.971,1.111,31.76" transform="translate(0 0.001)" fill="#226e72"/>
    </clipPath>
  </defs>
  <g id="Group_20441" data-name="Group 20441" transform="matrix(0.848, -0.53, 0.53, 0.848, 0, 37.869)">
    <g id="Group_20442" data-name="Group 20442" transform="translate(0 -0.001)">
      <g id="Group_20433" data-name="Group 20433">
        <g id="Group_20432" data-name="Group 20432" clip-path="url(#clip-path)">
          <path id="Path_23187" data-name="Path 23187" d="M59.95-6.409,66.318,78.71l-84.953,2.744L-25-3.664Z" transform="translate(15.073 3.864)" fill="#226e72"/>
        </g>
      </g>
      <g id="Group_20435" data-name="Group 20435" transform="translate(6.659 1.005)">
        <g id="Group_20443" data-name="Group 20443">
          <path id="Path_23189" data-name="Path 23189" d="M81.83,49.271c-4.864,21.44-23.1,35.577-40.738,31.576S13.1,56.223,17.968,34.782,41.071-.794,58.706,3.206,86.694,27.831,81.83,49.271" transform="translate(-16.767 -2.529)" fill="#83e6ec"/>
          <path id="Path_23190" data-name="Path 23190" d="M85.79,60.638C81.974,77.454,67.669,88.542,53.837,85.4S31.885,66.09,35.7,49.274s18.121-27.9,31.953-24.766S89.6,43.822,85.79,60.638" transform="translate(-27.613 -15.459)" fill="#57a4a8"/>
          <path id="Path_23191" data-name="Path 23191" d="M83.782,60.863c-3.8,16.619-17.531,27.7-30.666,24.739s-20.7-18.824-16.9-35.443,17.531-27.7,30.666-24.739,20.7,18.824,16.9,35.443" transform="translate(-28.304 -16.041)" fill="#c2f2f4"/>
        </g>
      </g>
      <g id="Group_20444" data-name="Group 20444" transform="matrix(0.993, 0.122, -0.122, 0.993, 29.812, 20.125)">
        <g id="Group_20444-2" data-name="Group 20444" transform="translate(0 0)">
          <path id="Path_23192" data-name="Path 23192" d="M7.591,38.326V33.782A15.677,15.677,0,0,1,0,31.72l1.265-4.4a14.773,14.773,0,0,0,7.309,2.062c2.951,0,4.967-1.453,4.967-3.7,0-2.109-1.641-3.468-5.108-4.733C3.514,19.164.328,16.914.328,12.556c0-4.029,2.812-7.121,7.544-7.965V0h3.842V4.357A14.974,14.974,0,0,1,18.18,5.9l-1.265,4.31a13.928,13.928,0,0,0-6.371-1.593c-3.28,0-4.452,1.687-4.452,3.28,0,1.921,1.687,3,5.669,4.592,5.247,1.968,7.591,4.5,7.591,8.668,0,3.982-2.765,7.5-7.919,8.34v4.826Z" fill="#57a4a8"/>
        </g>
      </g>
      <g id="Group_20445" data-name="Group 20445" transform="matrix(0.993, 0.122, -0.122, 0.993, 33.244, 20.845)">
        <g id="Group_20444-3" data-name="Group 20444" transform="translate(0 0)">
          <path id="Path_23192-2" data-name="Path 23192" d="M7.591,38.326V33.782A15.677,15.677,0,0,1,0,31.72l1.265-4.4a14.773,14.773,0,0,0,7.309,2.062c2.951,0,4.967-1.453,4.967-3.7,0-2.109-1.641-3.468-5.108-4.733C3.514,19.164.328,16.914.328,12.556c0-4.029,2.812-7.121,7.544-7.965V0h3.842V4.357A14.974,14.974,0,0,1,18.18,5.9l-1.265,4.31a13.928,13.928,0,0,0-6.371-1.593c-3.28,0-4.452,1.687-4.452,3.28,0,1.921,1.687,3,5.669,4.592,5.247,1.968,7.591,4.5,7.591,8.668,0,3.982-2.765,7.5-7.919,8.34v4.826Z" fill="#fff" stroke="#57a4a8" stroke-width="1"/>
        </g>
      </g>
    </g>
  </g>
</svg>
