<svg xmlns="http://www.w3.org/2000/svg" xmlns:xlink="http://www.w3.org/1999/xlink" width="34.539" height="44" viewBox="0 0 34.539 44">
  <defs>
    <clipPath id="clip-path">
      <path id="Path_23213" data-name="Path 23213" d="M11.332,474.027h1.745a7.252,7.252,0,0,0,7.214-6.6v9.891H6.646a5,5,0,0,1,4.686-3.286m12.353-8.588h4.883a5.466,5.466,0,0,1,5.46,5.46v.954c0,3.266-2.9,5.46-7.209,5.46H23.684Zm-6.071-4.3a7.6,7.6,0,0,0,2.677-5.16v10.162a7.237,7.237,0,0,0-2.677-5m6.071-10.017h4.883a5.46,5.46,0,1,1,0,10.92H23.684Zm-3.394-3.394v6.951a7.61,7.61,0,0,0-7.572-6.951H2.955v13.75L4,460.457a8.562,8.562,0,0,1,2.018-1.469l.33-.173v-7.69h6.37a4.207,4.207,0,0,1,0,8.415h-3.2v.015a7.013,7.013,0,0,0-6.568,6.99v5.98L4,471.5a10.4,10.4,0,0,1,2.042-1.557l.306-.178v-3.219a3.615,3.615,0,0,1,3.611-3.611h3.117a3.85,3.85,0,1,1,0,7.7H11.332a8.386,8.386,0,0,0-8.377,8.377v1.7H26.818a11.63,11.63,0,0,0,7.695-2.5,8.228,8.228,0,0,0,2.909-6.35V470.9a8.88,8.88,0,0,0-3.65-7.157,8.849,8.849,0,0,0-5.2-16.01Z" transform="translate(-2.955 -447.732)" fill="none"/>
    </clipPath>
    <linearGradient id="linear-gradient" x1="0.467" y1="-0.059" x2="0.47" y2="1.004" gradientUnits="objectBoundingBox">
      <stop offset="0" stop-color="#dbc182"/>
      <stop offset="0.204" stop-color="#ffe19f"/>
      <stop offset="0.394" stop-color="#fff6e3"/>
      <stop offset="0.628" stop-color="#c6a259"/>
      <stop offset="1" stop-color="#ad843a"/>
    </linearGradient>
    <clipPath id="clip-path-2">
      <rect id="Rectangle_5056" data-name="Rectangle 5056" width="34.539" height="44" fill="none"/>
    </clipPath>
  </defs>
  <g id="Group_20490" data-name="Group 20490" transform="translate(0 -0.001)">
    <g id="Group_20487" data-name="Group 20487" transform="translate(0.073 11.026)">
      <g id="Group_20486" data-name="Group 20486" clip-path="url(#clip-path)">
        <rect id="Rectangle_5053" data-name="Rectangle 5053" width="45.556" height="44.887" transform="translate(-13.164 6.56) rotate(-26.489)" fill="url(#linear-gradient)"/>
      </g>
    </g>
    <g id="Group_20489" data-name="Group 20489" transform="translate(0 0.001)">
      <g id="Group_20488" data-name="Group 20488" clip-path="url(#clip-path-2)">
        <rect id="Rectangle_5054" data-name="Rectangle 5054" width="1.31" height="8.336" transform="translate(0 0.095)" fill="#fff"/>
        <path id="Path_23214" data-name="Path 23214" d="M111.928,6.168v6.038h-1.179V3.87h1.643l1.346,4.99V3.87h1.167v8.336H113.56Z" transform="translate(-108.022 -3.774)" fill="#fff"/>
        <path id="Path_23215" data-name="Path 23215" d="M337.083,3.869h2.072c1.31,0,1.953.726,1.953,2.06v4.216c0,1.334-.643,2.06-1.953,2.06h-2.072Zm1.31,1.191v5.954h.738c.417,0,.667-.214.667-.81V5.87c0-.6-.25-.81-.667-.81Z" transform="translate(-328.783 -3.774)" fill="#fff"/>
        <rect id="Rectangle_5055" data-name="Rectangle 5055" width="1.31" height="8.336" transform="translate(13.635 0.095)" fill="#fff"/>
        <path id="Path_23216" data-name="Path 23216" d="M655.538,12.206h-1.322l-.226-1.512h-1.608l-.226,1.512h-1.2l1.334-8.336H654.2Zm-2.989-2.644h1.262l-.631-4.216Z" transform="translate(-634.924 -3.775)" fill="#fff"/>
        <path id="Path_23217" data-name="Path 23217" d="M866.648,11.015c.143.012.31.012.452.012.417,0,.75-.155.75-.8V3.87h1.31v6.264c0,1.667-.893,2.1-1.882,2.1a5.385,5.385,0,0,1-.631-.024Z" transform="translate(-845.308 -3.775)" fill="#fff"/>
        <path id="Path_23218" data-name="Path 23218" d="M1019.955,2.1a1.992,1.992,0,1,1,3.978,0V6.432a1.992,1.992,0,1,1-3.978,0Zm1.31,4.418c0,.6.262.822.679.822s.679-.226.679-.822v-4.5c0-.6-.262-.822-.679-.822s-.679.226-.679.822Z" transform="translate(-994.84 -0.001)" fill="#fff"/>
        <path id="Path_23219" data-name="Path 23219" d="M1212.156,9.443,1210.5,3.87h1.37l1,3.8,1-3.8h1.25l-1.655,5.573v2.763h-1.31Z" transform="translate(-1180.694 -3.775)" fill="#fff"/>
      </g>
    </g>
  </g>
</svg>
