<svg xmlns="http://www.w3.org/2000/svg" width="101" height="97.456" viewBox="0 0 101 97.456">
  <g id="Group_20430" data-name="Group 20430" transform="translate(0.5 0.504)">
    <g id="Group_20431" data-name="Group 20431" transform="translate(0 0)">
      <path id="Path_23161" data-name="Path 23161" d="M37.946,36.857s6.115,9.01,9.232,10.868a27.71,27.71,0,0,1-7.911-1.5S53.531,62.05,62.161,64.447a54.579,54.579,0,0,1-14.743-2.278S62.761,78.711,72.35,80.389c-6.233.48-14.5-.959-14.5-.959s11.508,12.226,18.7,12.226c-14.5,2.357-26.49-4.315-37.039-12.346,1.558,3.835,3.356,8.511,6.473,9.47-8.511.719-22.655-14.265-22.655-14.265s.119,5.634,3.356,7.791c-4.555-1.2-15.513-9.245-19.179-16.961a28.685,28.685,0,0,0,3.236,10.129S4.046,70.543.5,59.464c13.894-7.637,37.446-22.607,37.446-22.607" transform="translate(23.455 4.362)" fill="#fff93d"/>
      <path id="Path_23162" data-name="Path 23162" d="M37.946,36.857s6.115,9.01,9.232,10.868a27.71,27.71,0,0,1-7.911-1.5S53.531,62.05,62.161,64.447a54.579,54.579,0,0,1-14.743-2.278S62.761,78.711,72.35,80.389c-6.233.48-14.5-.959-14.5-.959s11.508,12.226,18.7,12.226c-14.5,2.357-26.49-4.315-37.039-12.346,1.558,3.835,3.356,8.511,6.473,9.47-8.511.719-22.655-14.265-22.655-14.265s.119,5.634,3.356,7.791c-4.555-1.2-15.513-9.245-19.179-16.961a28.685,28.685,0,0,0,3.236,10.129S4.046,70.543.5,59.464C14.394,51.827,37.946,36.857,37.946,36.857Z" transform="translate(23.455 4.362)" fill="none" stroke="#030114" stroke-linecap="round" stroke-linejoin="round" stroke-width="1"/>
      <path id="Path_23163" data-name="Path 23163" d="M45.241,45.639S55.54,57.3,56.8,57.3a35.489,35.489,0,0,1-7.912-1.619S58.3,71.739,65.73,73.3C56.619,71.739,54.1,69.341,54.1,69.341s13.306,14.624,16.422,15.7C59.976,81.688,44.753,68.263,44.753,68.263s-.72,7.432,3.715,11.387C40.8,75.934,29.65,62.569,29.65,62.569a19.708,19.708,0,0,0,.838,9.649c-5.512-4.076-11.469-16.375-11.469-16.375L16.464,40.813l18.221-3.356Z" transform="translate(11.376 4.442)" fill="#601394"/>
      <path id="Path_23164" data-name="Path 23164" d="M45.241,45.639S55.54,57.3,56.8,57.3a35.489,35.489,0,0,1-7.912-1.619S58.3,71.739,65.73,73.3C56.619,71.739,54.1,69.341,54.1,69.341s13.306,14.624,16.422,15.7C59.976,81.688,44.753,68.263,44.753,68.263s-.72,7.432,3.715,11.387C40.8,75.934,29.65,62.569,29.65,62.569a19.708,19.708,0,0,0,.838,9.649c-5.512-4.076-11.469-16.375-11.469-16.375L16.464,40.813l18.221-3.356Z" transform="translate(11.376 4.442)" fill="none" stroke="#030114" stroke-linecap="round" stroke-linejoin="round" stroke-width="1"/>
      <path id="Path_23165" data-name="Path 23165" d="M45.241,45.639S55.54,57.3,56.8,57.3a35.489,35.489,0,0,1-7.912-1.619S58.3,71.739,65.73,73.3C56.619,71.739,54.1,69.341,54.1,69.341s13.306,14.624,16.422,15.7C59.976,81.688,44.753,68.263,44.753,68.263s-.72,7.432,3.715,11.387C40.8,75.934,29.65,62.569,29.65,62.569a19.708,19.708,0,0,0,.838,9.649c-5.512-4.076-11.469-16.375-11.469-16.375L16.464,40.813l18.221-3.356Z" transform="translate(11.376 4.442)" fill="#601394"/>
      <path id="Path_23166" data-name="Path 23166" d="M45.241,45.639S55.54,57.3,56.8,57.3a35.489,35.489,0,0,1-7.912-1.619S58.3,71.739,65.73,73.3C56.619,71.739,54.1,69.341,54.1,69.341s13.306,14.624,16.422,15.7C59.976,81.688,44.753,68.263,44.753,68.263s-.72,7.432,3.715,11.387C40.8,75.934,29.65,62.569,29.65,62.569a19.708,19.708,0,0,0,.838,9.649c-5.512-4.076-11.469-16.375-11.469-16.375L16.464,40.813l18.221-3.356Z" transform="translate(11.376 4.442)" fill="none" stroke="#030114" stroke-linecap="round" stroke-linejoin="round" stroke-width="1"/>
      <path id="Path_23167" data-name="Path 23167" d="M48.738.611l45.31,51.963L66.9,67.5Z" transform="translate(-48.737 -0.486)" fill="#f7b03c"/>
      <path id="Path_23168" data-name="Path 23168" d="M48.738.611l45.31,51.963L66.9,67.5Z" transform="translate(-48.737 -0.486)" fill="none" stroke="#030114" stroke-linecap="round" stroke-linejoin="round" stroke-width="1"/>
      <path id="Path_23169" data-name="Path 23169" d="M21.937.611l75.7,31.824L81.271,43.044Z" transform="translate(-21.936 -0.486)" fill="#f7b03c"/>
      <path id="Path_23170" data-name="Path 23170" d="M21.937.611l75.7,31.824L81.271,43.044Z" transform="translate(-21.936 -0.486)" fill="none" stroke="#030114" stroke-linecap="round" stroke-linejoin="round" stroke-width="1"/>
      <path id="Path_23171" data-name="Path 23171" d="M95.7,43.044l-9.81,27.15L81.678,52.573,36.368.611Z" transform="translate(-36.368 -0.486)" fill="#bc6c0d"/>
      <path id="Path_23172" data-name="Path 23172" d="M95.7,43.044l-9.81,27.15L81.678,52.573,36.368.611Z" transform="translate(-36.368 -0.486)" fill="none" stroke="#030114" stroke-linecap="round" stroke-linejoin="round" stroke-width="1"/>
      <path id="Path_23173" data-name="Path 23173" d="M56.7,64.064,45.021,50.545l7.461-4.1Z" transform="translate(-7.172 5.644)" fill="#f7b03c"/>
      <path id="Path_23174" data-name="Path 23174" d="M56.7,64.064,45.021,50.545l7.461-4.1Z" transform="translate(-7.172 5.644)" fill="none" stroke="#030114" stroke-linecap="round" stroke-linejoin="round" stroke-width="1"/>
      <path id="Path_23175" data-name="Path 23175" d="M39.734,8.162c-.522,4.437,1.614,8.336,4.77,8.707s6.137-2.926,6.659-7.364S49.549,1.169,46.393.8s-6.137,2.926-6.659,7.364" transform="translate(4.366 -0.465)" fill="#fff93d"/>
      <path id="Path_23176" data-name="Path 23176" d="M39.734,8.162c-.522,4.437,1.614,8.336,4.77,8.707s6.137-2.926,6.659-7.364S49.549,1.169,46.393.8,40.256,3.725,39.734,8.162Z" transform="translate(4.366 -0.465)" fill="none" stroke="#030114" stroke-linecap="round" stroke-linejoin="round" stroke-width="1"/>
      <path id="Path_23177" data-name="Path 23177" d="M42.026,7.893c-.522,4.437,1.614,8.336,4.77,8.707s6.137-2.926,6.659-7.364S51.841.9,48.685.529s-6.137,2.926-6.659,7.364" transform="translate(-0.524 -0.501)" fill="#fff93d"/>
      <path id="Path_23178" data-name="Path 23178" d="M42.026,7.893c-.522,4.437,1.614,8.336,4.77,8.707s6.137-2.926,6.659-7.364S51.841.9,48.685.529,42.548,3.456,42.026,7.893Z" transform="translate(-0.524 -0.501)" fill="none" stroke="#030114" stroke-linecap="round" stroke-linejoin="round" stroke-width="1"/>
      <path id="Path_23179" data-name="Path 23179" d="M56.38,17.8c-.469,4,1.453,7.505,4.295,7.84S66.2,23,66.67,19s-1.453-7.507-4.295-7.84-5.526,2.635-6,6.63" transform="translate(-30.015 0.922)" fill="#fff93d"/>
      <path id="Path_23180" data-name="Path 23180" d="M56.38,17.8c-.469,4,1.453,7.505,4.295,7.84S66.2,23,66.67,19s-1.453-7.507-4.295-7.84S56.85,13.8,56.38,17.8Z" transform="translate(-30.015 0.922)" fill="none" stroke="#030114" stroke-linecap="round" stroke-linejoin="round" stroke-width="1"/>
      <path id="Path_23181" data-name="Path 23181" d="M58.444,17.552c-.469,4,1.453,7.505,4.295,7.84s5.526-2.635,6-6.63-1.453-7.507-4.295-7.84-5.526,2.635-6,6.63" transform="translate(-34.419 0.89)" fill="#fff93d"/>
      <path id="Path_23182" data-name="Path 23182" d="M58.444,17.552c-.469,4,1.453,7.505,4.295,7.84s5.526-2.635,6-6.63-1.453-7.507-4.295-7.84S58.914,13.557,58.444,17.552Z" transform="translate(-34.419 0.89)" fill="none" stroke="#030114" stroke-linecap="round" stroke-linejoin="round" stroke-width="1"/>
      <path id="Path_23183" data-name="Path 23183" d="M38.38,31.3c-.469,4,1.453,7.505,4.295,7.84s5.526-2.635,6-6.63-1.453-7.507-4.295-7.84-5.526,2.635-6,6.63" transform="translate(8.392 2.729)" fill="#fff93d"/>
      <path id="Path_23184" data-name="Path 23184" d="M38.38,31.3c-.469,4,1.453,7.505,4.295,7.84s5.526-2.635,6-6.63-1.453-7.507-4.295-7.84S38.85,27.309,38.38,31.3Z" transform="translate(8.392 2.729)" fill="none" stroke="#030114" stroke-linecap="round" stroke-linejoin="round" stroke-width="1"/>
      <path id="Path_23185" data-name="Path 23185" d="M40.444,31.062c-.469,4,1.453,7.505,4.295,7.84s5.526-2.635,6-6.63-1.453-7.507-4.295-7.84-5.526,2.635-6,6.63" transform="translate(3.988 2.696)" fill="#fff93d"/>
      <path id="Path_23186" data-name="Path 23186" d="M40.444,31.062c-.469,4,1.453,7.505,4.295,7.84s5.526-2.635,6-6.63-1.453-7.507-4.295-7.84S40.914,27.067,40.444,31.062Z" transform="translate(3.988 2.696)" fill="none" stroke="#030114" stroke-linecap="round" stroke-linejoin="round" stroke-width="1"/>
    </g>
  </g>
</svg>
