<svg xmlns="http://www.w3.org/2000/svg" width="40" height="40" viewBox="0 0 40 40">
  <g id="Group_20408" data-name="Group 20408" transform="translate(-1104 -5033)">
    <rect id="Rectangle_1867" data-name="Rectangle 1867" width="40" height="40" rx="20" transform="translate(1104 5033)" fill="#311164"/>
    <g id="Group_19553" data-name="Group 19553" transform="translate(-143 -3828.25)">
      <path id="Icon_ionic-logo-youtube" data-name="Icon ionic-logo-youtube" d="M21.857,8.144a3.341,3.341,0,0,0-3.18-3.49C16.3,4.543,13.868,4.5,11.388,4.5h-.774c-2.475,0-4.908.043-7.289.155A3.348,3.348,0,0,0,.15,8.153C.043,9.683,0,11.213,0,12.743s.043,3.06.146,4.594a3.352,3.352,0,0,0,3.176,3.5c2.5.116,5.067.168,7.675.163s5.17-.043,7.675-.163a3.352,3.352,0,0,0,3.18-3.5c.1-1.534.15-3.064.146-4.6S21.96,9.678,21.857,8.144ZM8.9,16.958V8.514l6.231,4.22Z" transform="translate(1256 8868.498)" fill="#fff"/>
    </g>
  </g>
</svg>
